# xmcd
#
# Track frame offsets:
#	150
#	18592
#	33655
#	53571
#	71293
#	89561
#	110896
#	132247
#	151614
#	166211
#	188768
#
# Disc length: 2730 seconds
#
# Revision: 1
# Processed by: cddbd v1.5.2PL0 Copyright (c) Steve Scherf et al.
# Submitted via: EZCDAudioConverter 7.1.0.1
#
DISCID=8b0aa80b
DTITLE=李佳薇 - 天堂/悬崖
DYEAR=2014
DGENRE=
TTITLE0=像天堂的悬崖
TTITLE1=强求
TTITLE2=忍不住想念
TTITLE3=笑到流泪
TTITLE4=真话
TTITLE5=纹身
TTITLE6=微恋爱
TTITLE7=快快说爱我
TTITLE8=纳爱来
TTITLE9=谁的爱
TTITLE10=都会好的
EXTD=
EXTT0=
EXTT1=
EXTT2=
EXTT3=
EXTT4=
EXTT5=
EXTT6=
EXTT7=
EXTT8=
EXTT9=
EXTT10=
PLAYORDER=
